<svg width="402" height="179" viewBox="0 0 402 179" fill="none" xmlns="http://www.w3.org/2000/svg">
<path d="M224.904 176.495C225.203 176.711 225.04 176.936 224.413 177.172C223.905 177.363 223.362 177.436 222.822 177.481C220.003 177.714 216.505 177.886 212.33 177.997C206.302 177.882 199.712 177.611 192.559 177.182C184.703 176.377 176.747 175.366 168.69 174.148C160.985 172.507 153.737 170.663 146.945 168.618C142.658 166.693 138.985 164.678 135.928 162.575C134.49 161.586 133.321 160.168 133.067 158.441C132.892 157.246 132.932 156.046 133.188 154.842C133.545 153.163 134.732 151.816 136.171 150.88C139.713 148.578 144.081 146.346 149.275 144.186C157.72 141.899 167.01 139.834 177.145 137.991C188.38 136.677 199.815 135.654 211.451 134.922C222.731 134.787 233.447 134.938 243.599 135.376C251.207 136.246 257.764 137.286 263.27 138.499C264.241 138.713 265.189 139.06 265.991 139.649C266.105 139.734 266.216 139.818 266.322 139.903C268.642 141.754 266.577 144.605 263.751 145.512C260.356 146.601 256.206 147.638 251.301 148.622C241.047 149.682 229.577 150.468 216.893 150.98C202.513 150.826 187.724 150.301 172.526 149.404C157.473 147.732 142.987 145.681 129.07 143.251C117.793 140.278 107.851 137.045 99.2448 133.553C98.4138 133.215 97.6322 132.765 96.9409 132.194C93.9954 129.759 91.7662 127.286 90.2534 124.775C88.6928 122.184 89.336 118.921 91.4922 116.799C94.4566 113.882 98.414 111.015 103.364 108.197C103.922 107.879 104.512 107.623 105.122 107.427C116.243 103.848 128.935 100.562 143.198 97.5691C160.33 95.2716 178.184 93.4198 196.761 92.0134C215.624 91.5568 234.024 91.5741 251.96 92.0656C267.489 93.4163 281.474 95.1339 293.917 97.2186C294.385 97.2969 294.846 97.4088 295.296 97.5558C299.7 98.993 303.442 100.481 306.523 102.019C310.546 104.028 311.504 108.977 307.819 111.552C306.152 112.717 304.122 113.872 301.728 115.017C301.108 115.313 300.454 115.533 299.784 115.683C288.399 118.239 274.974 120.486 259.509 122.427C240.168 123.565 219.694 124.196 198.088 124.318C175.547 123.328 153.252 121.77 131.201 119.643C111.073 116.425 92.5764 112.721 75.7124 108.53C64.94 104.216 56.1722 99.6966 49.4089 94.9711C47.4469 93.6002 46.0398 91.476 46.0978 89.0833C46.1956 85.0493 47.787 81.0244 50.8722 77.0087C51.6849 75.9509 52.7643 75.1359 53.968 74.5611C64.6084 69.4797 77.6694 64.6855 93.1511 60.1786C114.019 56.3148 136.518 53.0069 160.647 50.2548C186.566 48.7561 212.57 47.9162 238.659 47.7353C263.253 48.8532 286.294 50.5692 307.784 52.8832C323.717 56.0132 337.116 59.4809 347.981 63.286C349.325 63.7566 350.57 64.5051 351.486 65.5958C353.984 68.5725 354.991 71.574 354.507 74.6004C354.156 76.7929 352.344 78.3646 350.307 79.2474C341.312 83.1451 329.705 86.8087 315.486 90.2381C293.894 93.1737 270.099 95.5241 244.101 97.2891C215.268 97.687 185.911 97.3451 156.027 96.2633C126.98 93.6815 99.2867 90.3873 72.9464 86.3808C51.6603 81.2653 33.172 75.675 17.4813 69.61C16.584 69.2632 15.7404 68.7861 14.9934 68.1801C8.659 63.0411 4.43559 57.8167 2.32314 52.507C1.1718 49.613 2.22569 46.3944 4.55965 44.3321C11.1751 38.4867 20.3933 32.8049 32.2142 27.2867C32.7172 27.0518 33.2403 26.8612 33.7761 26.7159C54.9895 20.964 78.967 15.7909 105.709 11.1969C136.835 7.99006 169.028 5.59111 202.29 4C235.606 4.09475 267.889 5.01433 299.139 6.75873C325.955 9.96973 349.899 13.7983 370.971 18.2443C371.508 18.3575 372.035 18.5156 372.544 18.7181C386.055 24.0867 395.54 29.72 401 35.6181" stroke="white" stroke-width="2" stroke-linecap="round"/>
<circle cx="91" cy="85" r="16" fill="white"/>
<circle cx="91" cy="85" r="16" fill="white"/>
<circle cx="91" cy="85" r="16" fill="white"/>
<circle cx="91" cy="85" r="16" fill="white"/>
<circle cx="91" cy="85" r="16" fill="white"/>
<circle cx="91" cy="85" r="16" fill="white"/>
<circle cx="91" cy="85" r="16" fill="white"/>
<circle cx="91" cy="85" r="16" fill="white"/>
<circle cx="341" cy="61" r="8" fill="white"/>
<circle cx="341" cy="61" r="8" fill="white"/>
<circle cx="341" cy="61" r="8" fill="white"/>
<circle cx="341" cy="61" r="8" fill="white"/>
<circle cx="341" cy="61" r="8" fill="white"/>
<circle cx="341" cy="61" r="8" fill="white"/>
<circle cx="341" cy="61" r="8" fill="white"/>
<circle cx="341" cy="61" r="8" fill="white"/>
<circle cx="217" cy="151" r="8" fill="white"/>
<circle cx="217" cy="151" r="8" fill="white"/>
<circle cx="217" cy="151" r="8" fill="white"/>
<circle cx="217" cy="151" r="8" fill="white"/>
<circle cx="217" cy="151" r="8" fill="white"/>
<circle cx="217" cy="151" r="8" fill="white"/>
<circle cx="217" cy="151" r="8" fill="white"/>
<circle cx="217" cy="151" r="8" fill="white"/>
</svg>
