<svg xmlns="http://www.w3.org/2000/svg" width="10" height="13" viewBox="0 0 10 13" fill="null">
  <path d="M1.50016 12.8333C1.17933 12.8333 0.904774 12.7192 0.676496 12.4909C0.447829 12.2623 0.333496 11.9875 0.333496 11.6667V5.83334C0.333496 5.51251 0.447829 5.23776 0.676496 5.00909C0.904774 4.78082 1.17933 4.66668 1.50016 4.66668H2.0835V3.50001C2.0835 2.69307 2.36797 2.00512 2.93691 1.43618C3.50547 0.867621 4.19322 0.583344 5.00016 0.583344C5.80711 0.583344 6.49505 0.867621 7.064 1.43618C7.63255 2.00512 7.91683 2.69307 7.91683 3.50001V4.66668H8.50016C8.821 4.66668 9.09575 4.78082 9.32441 5.00909C9.55269 5.23776 9.66683 5.51251 9.66683 5.83334V11.6667C9.66683 11.9875 9.55269 12.2623 9.32441 12.4909C9.09575 12.7192 8.821 12.8333 8.50016 12.8333H1.50016ZM5.00016 9.91668C5.321 9.91668 5.59575 9.80254 5.82441 9.57426C6.05269 9.34559 6.16683 9.07084 6.16683 8.75001C6.16683 8.42918 6.05269 8.15443 5.82441 7.92576C5.59575 7.69748 5.321 7.58334 5.00016 7.58334C4.67933 7.58334 4.40477 7.69748 4.1765 7.92576C3.94783 8.15443 3.8335 8.42918 3.8335 8.75001C3.8335 9.07084 3.94783 9.34559 4.1765 9.57426C4.40477 9.80254 4.67933 9.91668 5.00016 9.91668ZM3.25016 4.66668H6.75016V3.50001C6.75016 3.0139 6.58002 2.6007 6.23975 2.26043C5.89947 1.92015 5.48627 1.75001 5.00016 1.75001C4.51405 1.75001 4.10086 1.92015 3.76058 2.26043C3.4203 2.6007 3.25016 3.0139 3.25016 3.50001V4.66668Z" fill="currentColor"/>
</svg>