<svg xmlns="http://www.w3.org/2000/svg" width="73" height="24" viewBox="0 0 73 24" fill="none">
  <path d="M19.8484 4.75949C21.9586 4.75949 23.6467 5.4288 24.9129 6.7674C26.179 8.10601 26.8121 9.91561 26.8121 12.1962V23.7975H24.3543V12.1962C24.3543 10.6097 23.9447 9.37025 23.1254 8.47785C22.3061 7.58544 21.2014 7.13924 19.8111 7.13924C18.1974 7.13924 16.9313 7.6722 16.0128 8.73813C15.0942 9.80406 14.6349 11.3906 14.6349 13.4976V23.7975H12.1771V12.1962C12.1771 10.5849 11.7923 9.34546 11.0227 8.47785C10.2531 7.58544 9.18561 7.13924 7.82018 7.13924C6.25615 7.13924 4.9652 7.6846 3.94733 8.77532C2.95429 9.86603 2.45777 11.4401 2.45777 13.4976V23.7975H0V5.2057H2.45777V7.9201C3.79837 5.81303 5.69756 4.75949 8.15533 4.75949C10.8614 4.75949 12.7481 5.88739 13.8157 8.1432C15.1563 5.88739 17.1672 4.75949 19.8484 4.75949Z" fill="currentColor"/>
  <path d="M51.4142 4.75949C53.5244 4.75949 55.2126 5.4288 56.4787 6.7674C57.7448 8.10601 58.3779 9.91561 58.3779 12.1962V23.7975H55.9201V12.1962C55.9201 10.6097 55.5105 9.37025 54.6912 8.47785C53.872 7.58544 52.7672 7.13924 51.377 7.13924C49.7633 7.13924 48.4972 7.6722 47.5786 8.73813C46.66 9.80406 46.2008 11.3906 46.2008 13.4976V23.7975H43.743V12.1962C43.743 10.5849 43.3582 9.34546 42.5886 8.47785C41.819 7.58544 40.7514 7.13924 39.386 7.13924C37.822 7.13924 36.531 7.6846 35.5132 8.77532C34.5201 9.86603 34.0236 11.4401 34.0236 13.4976V23.7975H31.5658V5.2057H34.0236V7.9201C35.3642 5.81303 37.2634 4.75949 39.7212 4.75949C42.4272 4.75949 44.314 5.88739 45.3815 8.1432C46.7221 5.88739 48.733 4.75949 51.4142 4.75949Z" fill="currentColor"/>
  <path d="M73 5.2057V7.58544H67.6376V18.8521C67.6376 19.8684 67.8362 20.5997 68.2334 21.0459C68.6306 21.4673 69.2264 21.6904 70.0209 21.7152C70.8153 21.7152 71.8084 21.6904 73 21.6408V23.7975C70.3436 24.1941 68.3699 24.0082 67.079 23.2397C65.8129 22.4465 65.1798 20.9839 65.1798 18.8521V7.58544H61.2697V5.2057H65.1798V0.743672L67.6376 0V5.2057H73Z" fill="currentColor"/>
</svg>