<svg xmlns="http://www.w3.org/2000/svg" width="350" height="54" viewBox="0 0 350 54" fill="currentColor">
  <path d="M31.509 11.1139C34.8589 11.1139 37.5389 12.178 39.5488 14.3062C41.5588 16.4343 42.5638 19.3113 42.5638 22.9371V41.3814H38.6621V22.9371C38.6621 20.4148 38.0118 18.4443 36.7112 17.0255C35.4107 15.6067 33.6569 14.8973 31.4499 14.8973C28.8882 14.8973 26.8782 15.7446 25.42 17.4393C23.9618 19.134 23.2327 21.6563 23.2327 25.0062V41.3814H19.331V22.9371C19.331 20.3754 18.7202 18.4049 17.4984 17.0255C16.2767 15.6067 14.582 14.8973 12.4144 14.8973C9.93154 14.8973 7.88218 15.7644 6.26633 17.4984C4.6899 19.2325 3.90168 21.7351 3.90168 25.0062V41.3814H0V11.8233H3.90168V16.1388C6.02987 12.7888 9.0448 11.1139 12.9465 11.1139C17.2423 11.1139 20.2375 12.9071 21.9322 16.4935C24.0603 12.9071 27.2526 11.1139 31.509 11.1139Z" fill="white"/>
  <path d="M75.5303 17.6167V11.8233H79.432V41.3814H75.5303V35.588C72.811 39.9232 68.8305 42.0908 63.5888 42.0908C59.3719 42.0908 55.7658 40.5932 52.7706 37.598C49.8147 34.6028 48.3368 30.9375 48.3368 26.6023C48.3368 22.2671 49.8147 18.6019 52.7706 15.6067C55.7658 12.6115 59.3719 11.1139 63.5888 11.1139C68.8305 11.1139 72.811 13.2815 75.5303 17.6167ZM55.6081 34.9377C57.8546 37.1842 60.6133 38.3074 63.8844 38.3074C67.1555 38.3074 69.9143 37.1842 72.1607 34.9377C74.4071 32.6125 75.5303 29.834 75.5303 26.6023C75.5303 23.3312 74.4071 20.5725 72.1607 18.3261C69.9143 16.0402 67.1555 14.8973 63.8844 14.8973C60.6133 14.8973 57.8546 16.0402 55.6081 18.3261C53.3617 20.5725 52.2385 23.3312 52.2385 26.6023C52.2385 29.834 53.3617 32.6125 55.6081 34.9377Z" fill="white"/>
  <path d="M95.7329 26.0112L111.576 41.3814H106.374L91.5947 27.1344V41.3814H87.6931V0H91.5947V24.888L105.664 11.8233H110.985L95.7329 26.0112Z" fill="white"/>
  <path d="M127.616 11.1139C132.03 11.1139 135.558 12.6706 138.198 15.7841C140.918 18.8581 142.277 22.5036 142.277 26.7206C142.277 26.9176 142.238 27.5285 142.159 28.5532H116.207C116.601 31.509 117.862 33.8737 119.99 35.6471C122.119 37.4206 124.779 38.3074 127.971 38.3074C132.464 38.3074 135.637 36.6324 137.489 33.2825L140.918 35.2924C139.617 37.4206 137.824 39.0956 135.538 40.3173C133.292 41.4997 130.75 42.0908 127.912 42.0908C123.262 42.0908 119.478 40.6326 116.562 37.7162C113.645 34.7998 112.187 31.0952 112.187 26.6023C112.187 22.1489 113.626 18.464 116.503 15.5476C119.38 12.5918 123.084 11.1139 127.616 11.1139ZM127.616 14.8973C124.542 14.8973 121.961 15.8038 119.872 17.6167C117.823 19.4296 116.601 21.8139 116.207 24.7697H138.257C137.824 21.6169 136.622 19.1931 134.651 17.4984C132.602 15.7644 130.257 14.8973 127.616 14.8973Z" fill="white"/>
  <path d="M194.772 11.1139C198.122 11.1139 200.802 12.178 202.811 14.3062C204.821 16.4343 205.826 19.3113 205.826 22.9371V41.3814H201.925V22.9371C201.925 20.4148 201.274 18.4443 199.974 17.0255C198.673 15.6067 196.92 14.8973 194.713 14.8973C192.151 14.8973 190.141 15.7446 188.683 17.4393C187.224 19.134 186.495 21.6563 186.495 25.0062V41.3814H182.594V22.9371C182.594 20.3754 181.983 18.4049 180.761 17.0255C179.539 15.6067 177.845 14.8973 175.677 14.8973C173.194 14.8973 171.145 15.7644 169.529 17.4984C167.953 19.2325 167.164 21.7351 167.164 25.0062V41.3814H163.263V11.8233H167.164V16.1388C169.293 12.7888 172.307 11.1139 176.209 11.1139C180.505 11.1139 183.5 12.9071 185.195 16.4935C187.323 12.9071 190.515 11.1139 194.772 11.1139Z" fill="white"/>
  <path d="M227.029 11.1139C231.443 11.1139 234.97 12.6706 237.611 15.7841C240.33 18.8581 241.69 22.5036 241.69 26.7206C241.69 26.9176 241.65 27.5285 241.571 28.5532H215.619C216.013 31.509 217.275 33.8737 219.403 35.6471C221.531 37.4206 224.191 38.3074 227.384 38.3074C231.876 38.3074 235.049 36.6324 236.901 33.2825L240.33 35.2924C239.029 37.4206 237.236 39.0956 234.95 40.3173C232.704 41.4997 230.162 42.0908 227.324 42.0908C222.674 42.0908 218.89 40.6326 215.974 37.7162C213.058 34.7998 211.599 31.0952 211.599 26.6023C211.599 22.1489 213.038 18.464 215.915 15.5476C218.792 12.5918 222.497 11.1139 227.029 11.1139ZM227.029 14.8973C223.955 14.8973 221.373 15.8038 219.285 17.6167C217.235 19.4296 216.013 21.8139 215.619 24.7697H237.67C237.236 21.6169 236.034 19.1931 234.064 17.4984C232.014 15.7644 229.669 14.8973 227.029 14.8973Z" fill="white"/>
  <path d="M278.341 11.8233V15.6067H269.828V33.519C269.828 35.1348 270.143 36.2974 270.774 37.0068C271.405 37.6768 272.35 38.0315 273.612 38.0709C274.873 38.0709 276.449 38.0315 278.341 37.9527V41.3814C274.124 42.012 270.991 41.7164 268.941 40.4947C266.931 39.2335 265.926 36.9083 265.926 33.519V15.6067H259.719V11.8233H265.926V4.72931L269.828 3.54698V11.8233H278.341Z" fill="white"/>
  <path d="M307.824 37.6571C304.789 40.6129 301.124 42.0908 296.828 42.0908C292.454 42.0908 288.769 40.6129 285.773 37.6571C282.778 34.6619 281.281 30.977 281.281 26.6023C281.281 22.2277 282.778 18.5625 285.773 15.6067C288.769 12.6115 292.454 11.1139 296.828 11.1139C301.163 11.1139 304.829 12.6115 307.824 15.6067C310.858 18.5625 312.376 22.2277 312.376 26.6023C312.376 30.9375 310.858 34.6225 307.824 37.6571ZM288.552 34.9377C290.798 37.1842 293.557 38.3074 296.828 38.3074C300.099 38.3074 302.858 37.1842 305.104 34.9377C307.351 32.6125 308.474 29.834 308.474 26.6023C308.474 23.3312 307.351 20.5725 305.104 18.3261C302.858 16.0402 300.099 14.8973 296.828 14.8973C293.557 14.8973 290.798 16.0402 288.552 18.3261C286.305 20.5725 285.182 23.3312 285.182 26.6023C285.182 29.834 286.305 32.6125 288.552 34.9377Z" fill="white"/>
  <path d="M334.748 11.1139C338.965 11.1139 342.551 12.6115 345.507 15.6067C348.502 18.6019 350 22.2671 350 26.6023C350 30.9375 348.502 34.6028 345.507 37.598C342.551 40.5932 338.965 42.0908 334.748 42.0908C329.506 42.0908 325.526 39.9232 322.807 35.588V53.2047H318.905V11.8233H322.807V17.6167C325.526 13.2815 329.506 11.1139 334.748 11.1139ZM326.176 34.9377C328.423 37.1842 331.181 38.3074 334.452 38.3074C337.724 38.3074 340.482 37.1842 342.729 34.9377C344.975 32.6125 346.098 29.834 346.098 26.6023C346.098 23.3312 344.975 20.5725 342.729 18.3261C340.482 16.0402 337.724 14.8973 334.452 14.8973C331.181 14.8973 328.423 16.0402 326.176 18.3261C323.93 20.5725 322.807 23.3312 322.807 26.6023C322.807 29.834 323.93 32.6125 326.176 34.9377Z" fill="white"/>
</svg>