<svg xmlns="http://www.w3.org/2000/svg" width="24" height="24" viewBox="0 3 24 24" fill="none">
  <path d="M3 14.0625C2.85082 14.0625 2.70774 14.0032 2.60225 13.8977C2.49677 13.7922 2.4375 13.6491 2.4375 13.5V10.5C2.4375 10.3508 2.49677 10.2077 2.60225 10.1022C2.70774 9.99672 2.85082 9.93746 3 9.93746C3.14919 9.93746 3.29226 9.99672 3.39775 10.1022C3.50324 10.2077 3.5625 10.3508 3.5625 10.5V13.5C3.5625 13.6491 3.50324 13.7922 3.39775 13.8977C3.29226 14.0032 3.14919 14.0625 3 14.0625ZM9.27188 20.7187L4.05 19.5562C3.83265 19.5095 3.63113 19.4073 3.46516 19.2594C3.29918 19.1115 3.17444 18.923 3.10313 18.7125C3.05032 18.5717 3.02486 18.4221 3.02813 18.2718C3.02802 17.9762 3.12705 17.689 3.30938 17.4562L5.4375 14.8031V9.19683L3.30938 6.54371C3.12705 6.31094 3.02802 6.02376 3.02813 5.72808C3.02486 5.57777 3.05032 5.42822 3.10313 5.28746C3.17444 5.0769 3.29918 4.88845 3.46516 4.74056C3.63113 4.59266 3.83265 4.49038 4.05 4.44371L9.27188 3.28121C9.46774 3.23823 9.67081 3.24037 9.86572 3.28748C10.0606 3.33458 10.2423 3.42541 10.3969 3.55308L13.7719 6.36558C14.9222 6.444 16.0539 6.69689 17.1281 7.11558C19.9219 8.20308 21.7406 10.125 22.5844 11.175C22.7715 11.4092 22.8734 11.7001 22.8734 12C22.8734 12.2998 22.7715 12.5907 22.5844 12.825C21.7406 13.8562 19.9125 15.7593 17.1188 16.8281C16.0686 17.2391 14.9624 17.4888 13.8375 17.5687L10.3969 20.4468C10.2423 20.5745 10.0606 20.6653 9.86572 20.7124C9.67081 20.7595 9.46774 20.7617 9.27188 20.7187ZM6.5625 9.32808V14.6718C14.9719 19.2375 20.2688 13.8843 21.7031 12.1125C21.7296 12.0796 21.7448 12.039 21.7465 11.9968C21.7482 11.9546 21.7363 11.913 21.7125 11.8781C20.2688 10.0875 14.9719 4.65933 6.5625 9.32808ZM6.14063 8.27808C8.15625 7.18121 10.125 6.54371 12.0375 6.38433L9.675 4.41558C9.65268 4.39826 9.6269 4.38595 9.5994 4.37948C9.5719 4.37301 9.54333 4.37253 9.51563 4.37808L4.29375 5.54058C4.26264 5.54653 4.23384 5.56112 4.21062 5.58267C4.18741 5.60422 4.17074 5.63187 4.1625 5.66246C4.14986 5.69177 4.1458 5.72406 4.15078 5.75559C4.15575 5.78712 4.16957 5.81659 4.19063 5.84058L6.14063 8.27808ZM9.675 19.5843L12.0844 17.5687C10.1625 17.4281 8.175 16.8093 6.14063 15.7218L4.19063 18.1593C4.16957 18.1833 4.15575 18.2128 4.15078 18.2443C4.1458 18.2759 4.14986 18.3081 4.1625 18.3375C4.17074 18.368 4.18741 18.3957 4.21062 18.4172C4.23384 18.4388 4.26264 18.4534 4.29375 18.4593L9.51563 19.6218C9.54333 19.6274 9.5719 19.6269 9.5994 19.6204C9.6269 19.614 9.65268 19.6017 9.675 19.5843ZM14.0625 12C14.0625 12.1854 14.1175 12.3666 14.2205 12.5208C14.3235 12.675 14.4699 12.7951 14.6412 12.8661C14.8125 12.9371 15.001 12.9556 15.1829 12.9194C15.3648 12.8833 15.5318 12.794 15.6629 12.6629C15.794 12.5318 15.8833 12.3647 15.9195 12.1829C15.9557 12.001 15.9371 11.8125 15.8661 11.6412C15.7952 11.4699 15.675 11.3235 15.5209 11.2205C15.3667 11.1174 15.1854 11.0625 15 11.0625C14.7514 11.0625 14.5129 11.1612 14.3371 11.337C14.1613 11.5129 14.0625 11.7513 14.0625 12Z" fill="currentColor"/>
</svg>