<svg width="16" height="18" viewBox="0 0 16 18" fill="none" xmlns="http://www.w3.org/2000/svg">
  <path opacity="0.7" d="M7.50365 1.08399C7.5749 0.497759 8.4251 0.49776 8.49635 1.084L9.22804 7.10441C9.25462 7.3231 9.42119 7.49862 9.63819 7.5366L15.1858 8.50749C15.7375 8.60405 15.7375 9.39595 15.1858 9.49251L9.63819 10.4634C9.42119 10.5014 9.25462 10.6769 9.22804 10.8956L8.49635 16.916C8.4251 17.5022 7.5749 17.5022 7.50365 16.916L6.77196 10.8956C6.74538 10.6769 6.57881 10.5014 6.36181 10.4634L0.814203 9.49251C0.262463 9.39595 0.262464 8.60405 0.814204 8.50749L6.36181 7.5366C6.57881 7.49862 6.74538 7.3231 6.77196 7.10441L7.50365 1.08399Z" fill="currentColor"/>
</svg>
