<svg width="12" height="12" viewBox="0 0 12 12" fill="none" xmlns="http://www.w3.org/2000/svg">
<path opacity="0.7" d="M5.50365 1.084C5.5749 0.497762 6.4251 0.497759 6.49635 1.08399L6.90984 4.48624C6.93642 4.70493 7.10299 4.88046 7.31999 4.91844L10.6858 5.50749C11.2375 5.60404 11.2375 6.39595 10.6858 6.49251L7.31999 7.08156C7.10299 7.11954 6.93642 7.29507 6.90984 7.51375L6.49635 10.916C6.4251 11.5022 5.5749 11.5022 5.50365 10.916L5.09016 7.51376C5.06358 7.29507 4.89701 7.11954 4.68001 7.08156L1.31421 6.49251C0.762466 6.39595 0.762463 5.60405 1.3142 5.50749L4.68001 4.91844C4.89701 4.88046 5.06358 4.70493 5.09016 4.48624L5.50365 1.084Z" fill="currentColor"/>
</svg>
