<svg xmlns="http://www.w3.org/2000/svg" width="20" height="20" viewBox="0 0 20 20" fill="none">
  <path d="M19.1057 9.55C19.1078 9.82844 19.0231 10.1006 18.8634 10.3287C18.7037 10.5568 18.477 10.7296 18.2147 10.823L12.7918 12.7918L10.823 18.2147C10.7265 18.4745 10.5528 18.6986 10.3253 18.8569C10.0977 19.0152 9.82718 19.1 9.55 19.1C9.27282 19.1 9.00227 19.0152 8.77472 18.8569C8.54716 18.6986 8.37348 18.4745 8.27703 18.2147L6.30817 12.7918L0.885327 10.823C0.625469 10.7265 0.401355 10.5528 0.243092 10.3253C0.0848294 10.0977 0 9.82718 0 9.55C0 9.27282 0.0848294 9.00228 0.243092 8.77472C0.401355 8.54716 0.625469 8.37349 0.885327 8.27703L6.30817 6.30817L8.27703 0.885327C8.37348 0.625469 8.54716 0.401355 8.77472 0.243092C9.00227 0.0848295 9.27282 0 9.55 0C9.82718 0 10.0977 0.0848295 10.3253 0.243092C10.5528 0.401355 10.7265 0.625469 10.823 0.885327L12.7918 6.30817L18.2147 8.27703C18.477 8.37043 18.7037 8.54317 18.8634 8.77128C19.0231 8.99939 19.1078 9.27156 19.1057 9.55Z" fill="currentColor"/>
</svg>