<svg xmlns="http://www.w3.org/2000/svg" width="14" height="14" viewBox="0 0 14 14" fill="none">
  <path d="M13.5705 6.69992C13.5718 6.88554 13.5154 7.06699 13.4089 7.21906C13.3025 7.37114 13.1513 7.4863 12.9764 7.54856L9.36121 8.86114L8.04864 12.4764C7.98434 12.6496 7.86855 12.799 7.71685 12.9045C7.56514 13.01 7.38478 13.0666 7.19999 13.0666C7.01521 13.0666 6.83484 13.01 6.68314 12.9045C6.53143 12.799 6.41565 12.6496 6.35135 12.4764L5.03878 8.86114L1.42355 7.54856C1.25031 7.48426 1.1009 7.36848 0.99539 7.21677C0.889881 7.06507 0.833328 6.88471 0.833328 6.69992C0.833328 6.51513 0.889881 6.33477 0.99539 6.18306C1.1009 6.03136 1.25031 5.91558 1.42355 5.85127L5.03878 4.5387L6.35135 0.92347C6.41565 0.750231 6.53143 0.600822 6.68314 0.495313C6.83484 0.389805 7.01521 0.333252 7.19999 0.333252C7.38478 0.333252 7.56514 0.389805 7.71685 0.495313C7.86855 0.600822 7.98434 0.750231 8.04864 0.92347L9.36121 4.5387L12.9764 5.85127C13.1513 5.91354 13.3025 6.0287 13.4089 6.18077C13.5154 6.33285 13.5718 6.51429 13.5705 6.69992Z" fill="currentColor"/>
</svg>